<mxfile host="Electron" modified="2024-11-28T08:19:11.525Z" agent="Mozilla/5.0 (Windows NT 10.0; Win64; x64) AppleWebKit/537.36 (KHTML, like Gecko) draw.io/24.4.6 Chrome/124.0.6367.207 Electron/30.0.6 Safari/537.36" etag="Onhste1D_UuVt-_u5y5g" version="24.4.6" type="device">
  <diagram name="Seite-1" id="ffi-yqUCxo23HGkewVHe">
    <mxGraphModel dx="915" dy="1513" grid="1" gridSize="10" guides="1" tooltips="1" connect="1" arrows="1" fold="1" page="1" pageScale="1" pageWidth="1169" pageHeight="827" math="0" shadow="0">
      <root>
        <mxCell id="0" />
        <mxCell id="1" parent="0" />
        <mxCell id="5WmUJms9LSQHzPQv98dH-5" style="edgeStyle=orthogonalEdgeStyle;rounded=0;orthogonalLoop=1;jettySize=auto;html=1;" edge="1" parent="1" source="5WmUJms9LSQHzPQv98dH-1" target="5WmUJms9LSQHzPQv98dH-4">
          <mxGeometry relative="1" as="geometry" />
        </mxCell>
        <mxCell id="5WmUJms9LSQHzPQv98dH-1" value="Start" style="strokeWidth=2;html=1;shape=mxgraph.flowchart.terminator;whiteSpace=wrap;" vertex="1" parent="1">
          <mxGeometry x="410" y="20" width="100" height="60" as="geometry" />
        </mxCell>
        <mxCell id="5WmUJms9LSQHzPQv98dH-2" value="Ende" style="strokeWidth=2;html=1;shape=mxgraph.flowchart.terminator;whiteSpace=wrap;" vertex="1" parent="1">
          <mxGeometry x="410" y="610" width="100" height="60" as="geometry" />
        </mxCell>
        <mxCell id="5WmUJms9LSQHzPQv98dH-8" value="ja" style="edgeStyle=orthogonalEdgeStyle;rounded=0;orthogonalLoop=1;jettySize=auto;html=1;" edge="1" parent="1" source="5WmUJms9LSQHzPQv98dH-3" target="5WmUJms9LSQHzPQv98dH-7">
          <mxGeometry relative="1" as="geometry" />
        </mxCell>
        <mxCell id="5WmUJms9LSQHzPQv98dH-10" value="nein" style="edgeStyle=orthogonalEdgeStyle;rounded=0;orthogonalLoop=1;jettySize=auto;html=1;entryX=1;entryY=0.5;entryDx=0;entryDy=0;" edge="1" parent="1" source="5WmUJms9LSQHzPQv98dH-3" target="5WmUJms9LSQHzPQv98dH-11">
          <mxGeometry relative="1" as="geometry">
            <mxPoint x="590" y="290" as="targetPoint" />
            <Array as="points">
              <mxPoint x="570" y="280" />
              <mxPoint x="570" y="525" />
            </Array>
          </mxGeometry>
        </mxCell>
        <mxCell id="5WmUJms9LSQHzPQv98dH-3" value="Ist Bedingung wahr?" style="strokeWidth=2;html=1;shape=mxgraph.flowchart.decision;whiteSpace=wrap;fillColor=#f8cecc;strokeColor=#b85450;" vertex="1" parent="1">
          <mxGeometry x="410" y="230" width="100" height="100" as="geometry" />
        </mxCell>
        <mxCell id="5WmUJms9LSQHzPQv98dH-6" style="edgeStyle=orthogonalEdgeStyle;rounded=0;orthogonalLoop=1;jettySize=auto;html=1;" edge="1" parent="1" source="5WmUJms9LSQHzPQv98dH-4" target="5WmUJms9LSQHzPQv98dH-3">
          <mxGeometry relative="1" as="geometry" />
        </mxCell>
        <mxCell id="5WmUJms9LSQHzPQv98dH-4" value="Anweisung" style="rounded=1;whiteSpace=wrap;html=1;absoluteArcSize=1;arcSize=14;strokeWidth=2;" vertex="1" parent="1">
          <mxGeometry x="410" y="130" width="100" height="50" as="geometry" />
        </mxCell>
        <mxCell id="5WmUJms9LSQHzPQv98dH-7" value="Schleifenanweisung" style="rounded=1;whiteSpace=wrap;html=1;absoluteArcSize=1;arcSize=14;strokeWidth=2;fillColor=#d5e8d4;strokeColor=#82b366;" vertex="1" parent="1">
          <mxGeometry x="395" y="380" width="130" height="50" as="geometry" />
        </mxCell>
        <mxCell id="5WmUJms9LSQHzPQv98dH-9" style="edgeStyle=orthogonalEdgeStyle;rounded=0;orthogonalLoop=1;jettySize=auto;html=1;entryX=0;entryY=0.5;entryDx=0;entryDy=0;entryPerimeter=0;" edge="1" parent="1" source="5WmUJms9LSQHzPQv98dH-7" target="5WmUJms9LSQHzPQv98dH-3">
          <mxGeometry relative="1" as="geometry">
            <Array as="points">
              <mxPoint x="320" y="410" />
              <mxPoint x="320" y="280" />
            </Array>
          </mxGeometry>
        </mxCell>
        <mxCell id="5WmUJms9LSQHzPQv98dH-12" style="edgeStyle=orthogonalEdgeStyle;rounded=0;orthogonalLoop=1;jettySize=auto;html=1;" edge="1" parent="1" source="5WmUJms9LSQHzPQv98dH-11" target="5WmUJms9LSQHzPQv98dH-2">
          <mxGeometry relative="1" as="geometry" />
        </mxCell>
        <mxCell id="5WmUJms9LSQHzPQv98dH-11" value="Anweisung" style="rounded=1;whiteSpace=wrap;html=1;absoluteArcSize=1;arcSize=14;strokeWidth=2;" vertex="1" parent="1">
          <mxGeometry x="410" y="500" width="100" height="50" as="geometry" />
        </mxCell>
        <mxCell id="5WmUJms9LSQHzPQv98dH-13" style="edgeStyle=orthogonalEdgeStyle;rounded=0;orthogonalLoop=1;jettySize=auto;html=1;" edge="1" source="5WmUJms9LSQHzPQv98dH-14" target="5WmUJms9LSQHzPQv98dH-20" parent="1">
          <mxGeometry relative="1" as="geometry" />
        </mxCell>
        <mxCell id="5WmUJms9LSQHzPQv98dH-14" value="Start" style="strokeWidth=2;html=1;shape=mxgraph.flowchart.terminator;whiteSpace=wrap;" vertex="1" parent="1">
          <mxGeometry x="749.94" y="20" width="100" height="60" as="geometry" />
        </mxCell>
        <mxCell id="5WmUJms9LSQHzPQv98dH-15" value="Ende" style="strokeWidth=2;html=1;shape=mxgraph.flowchart.terminator;whiteSpace=wrap;" vertex="1" parent="1">
          <mxGeometry x="749.94" y="610" width="100" height="60" as="geometry" />
        </mxCell>
        <mxCell id="5WmUJms9LSQHzPQv98dH-19" style="edgeStyle=orthogonalEdgeStyle;rounded=0;orthogonalLoop=1;jettySize=auto;html=1;" edge="1" source="5WmUJms9LSQHzPQv98dH-20" target="5WmUJms9LSQHzPQv98dH-21" parent="1">
          <mxGeometry relative="1" as="geometry">
            <mxPoint x="799.94" y="230" as="targetPoint" />
          </mxGeometry>
        </mxCell>
        <mxCell id="5WmUJms9LSQHzPQv98dH-20" value="Anweisung" style="rounded=1;whiteSpace=wrap;html=1;absoluteArcSize=1;arcSize=14;strokeWidth=2;" vertex="1" parent="1">
          <mxGeometry x="749.94" y="130" width="100" height="50" as="geometry" />
        </mxCell>
        <mxCell id="5WmUJms9LSQHzPQv98dH-26" style="edgeStyle=orthogonalEdgeStyle;rounded=0;orthogonalLoop=1;jettySize=auto;html=1;" edge="1" parent="1" source="5WmUJms9LSQHzPQv98dH-21" target="5WmUJms9LSQHzPQv98dH-25">
          <mxGeometry relative="1" as="geometry" />
        </mxCell>
        <mxCell id="5WmUJms9LSQHzPQv98dH-21" value="Schleifenanweisung" style="rounded=1;whiteSpace=wrap;html=1;absoluteArcSize=1;arcSize=14;strokeWidth=2;fillColor=#d5e8d4;strokeColor=#82b366;" vertex="1" parent="1">
          <mxGeometry x="734.94" y="260" width="130" height="50" as="geometry" />
        </mxCell>
        <mxCell id="5WmUJms9LSQHzPQv98dH-23" style="edgeStyle=orthogonalEdgeStyle;rounded=0;orthogonalLoop=1;jettySize=auto;html=1;" edge="1" source="5WmUJms9LSQHzPQv98dH-24" target="5WmUJms9LSQHzPQv98dH-15" parent="1">
          <mxGeometry relative="1" as="geometry" />
        </mxCell>
        <mxCell id="5WmUJms9LSQHzPQv98dH-24" value="Anweisung" style="rounded=1;whiteSpace=wrap;html=1;absoluteArcSize=1;arcSize=14;strokeWidth=2;" vertex="1" parent="1">
          <mxGeometry x="749.94" y="510" width="100" height="50" as="geometry" />
        </mxCell>
        <mxCell id="5WmUJms9LSQHzPQv98dH-27" value="ja" style="edgeStyle=orthogonalEdgeStyle;rounded=0;orthogonalLoop=1;jettySize=auto;html=1;entryX=1;entryY=0.5;entryDx=0;entryDy=0;" edge="1" parent="1" source="5WmUJms9LSQHzPQv98dH-25" target="5WmUJms9LSQHzPQv98dH-21">
          <mxGeometry relative="1" as="geometry">
            <Array as="points">
              <mxPoint x="930" y="405" />
              <mxPoint x="930" y="285" />
            </Array>
          </mxGeometry>
        </mxCell>
        <mxCell id="5WmUJms9LSQHzPQv98dH-28" value="nein" style="edgeStyle=orthogonalEdgeStyle;rounded=0;orthogonalLoop=1;jettySize=auto;html=1;" edge="1" parent="1" source="5WmUJms9LSQHzPQv98dH-25" target="5WmUJms9LSQHzPQv98dH-24">
          <mxGeometry relative="1" as="geometry" />
        </mxCell>
        <mxCell id="5WmUJms9LSQHzPQv98dH-25" value="Ist Bedingung wahr?" style="strokeWidth=2;html=1;shape=mxgraph.flowchart.decision;whiteSpace=wrap;fillColor=#f8cecc;strokeColor=#b85450;" vertex="1" parent="1">
          <mxGeometry x="749.94" y="355" width="100" height="100" as="geometry" />
        </mxCell>
        <mxCell id="5WmUJms9LSQHzPQv98dH-29" value="Kopfgesteuerte Schleife" style="text;html=1;align=center;verticalAlign=middle;whiteSpace=wrap;rounded=0;" vertex="1" parent="1">
          <mxGeometry x="380" y="-29" width="160" height="30" as="geometry" />
        </mxCell>
        <mxCell id="5WmUJms9LSQHzPQv98dH-30" value="Fußgesteuerte Schleife" style="text;html=1;align=center;verticalAlign=middle;whiteSpace=wrap;rounded=0;" vertex="1" parent="1">
          <mxGeometry x="719.94" y="-29" width="160" height="30" as="geometry" />
        </mxCell>
        <mxCell id="5WmUJms9LSQHzPQv98dH-35" style="edgeStyle=orthogonalEdgeStyle;rounded=0;orthogonalLoop=1;jettySize=auto;html=1;" edge="1" parent="1" source="5WmUJms9LSQHzPQv98dH-31" target="5WmUJms9LSQHzPQv98dH-33">
          <mxGeometry relative="1" as="geometry" />
        </mxCell>
        <mxCell id="5WmUJms9LSQHzPQv98dH-31" value="Ist Bedingung erfüllt?" style="strokeWidth=2;html=1;shape=mxgraph.flowchart.loop_limit;whiteSpace=wrap;" vertex="1" parent="1">
          <mxGeometry x="1050" y="220" width="100" height="60" as="geometry" />
        </mxCell>
        <mxCell id="5WmUJms9LSQHzPQv98dH-41" style="edgeStyle=orthogonalEdgeStyle;rounded=0;orthogonalLoop=1;jettySize=auto;html=1;" edge="1" parent="1" source="5WmUJms9LSQHzPQv98dH-32" target="5WmUJms9LSQHzPQv98dH-40">
          <mxGeometry relative="1" as="geometry" />
        </mxCell>
        <mxCell id="5WmUJms9LSQHzPQv98dH-32" value="" style="strokeWidth=2;html=1;shape=mxgraph.flowchart.loop_limit;whiteSpace=wrap;direction=west;" vertex="1" parent="1">
          <mxGeometry x="1050" y="430" width="100" height="60" as="geometry" />
        </mxCell>
        <mxCell id="5WmUJms9LSQHzPQv98dH-34" style="edgeStyle=orthogonalEdgeStyle;rounded=0;orthogonalLoop=1;jettySize=auto;html=1;" edge="1" parent="1" source="5WmUJms9LSQHzPQv98dH-33" target="5WmUJms9LSQHzPQv98dH-32">
          <mxGeometry relative="1" as="geometry" />
        </mxCell>
        <mxCell id="5WmUJms9LSQHzPQv98dH-33" value="Schleifenanweisung" style="rounded=1;whiteSpace=wrap;html=1;absoluteArcSize=1;arcSize=14;strokeWidth=2;fillColor=#d5e8d4;strokeColor=#82b366;" vertex="1" parent="1">
          <mxGeometry x="1035" y="330" width="130" height="50" as="geometry" />
        </mxCell>
        <mxCell id="5WmUJms9LSQHzPQv98dH-39" style="edgeStyle=orthogonalEdgeStyle;rounded=0;orthogonalLoop=1;jettySize=auto;html=1;" edge="1" parent="1" source="5WmUJms9LSQHzPQv98dH-36" target="5WmUJms9LSQHzPQv98dH-31">
          <mxGeometry relative="1" as="geometry" />
        </mxCell>
        <mxCell id="5WmUJms9LSQHzPQv98dH-36" value="Anweisung" style="rounded=1;whiteSpace=wrap;html=1;absoluteArcSize=1;arcSize=14;strokeWidth=2;" vertex="1" parent="1">
          <mxGeometry x="1050" y="120" width="100" height="50" as="geometry" />
        </mxCell>
        <mxCell id="5WmUJms9LSQHzPQv98dH-38" style="edgeStyle=orthogonalEdgeStyle;rounded=0;orthogonalLoop=1;jettySize=auto;html=1;" edge="1" parent="1" source="5WmUJms9LSQHzPQv98dH-37" target="5WmUJms9LSQHzPQv98dH-36">
          <mxGeometry relative="1" as="geometry" />
        </mxCell>
        <mxCell id="5WmUJms9LSQHzPQv98dH-37" value="Start" style="strokeWidth=2;html=1;shape=mxgraph.flowchart.terminator;whiteSpace=wrap;" vertex="1" parent="1">
          <mxGeometry x="1050" y="10" width="100" height="60" as="geometry" />
        </mxCell>
        <mxCell id="5WmUJms9LSQHzPQv98dH-43" style="edgeStyle=orthogonalEdgeStyle;rounded=0;orthogonalLoop=1;jettySize=auto;html=1;" edge="1" parent="1" source="5WmUJms9LSQHzPQv98dH-40" target="5WmUJms9LSQHzPQv98dH-42">
          <mxGeometry relative="1" as="geometry" />
        </mxCell>
        <mxCell id="5WmUJms9LSQHzPQv98dH-40" value="Anweisung" style="rounded=1;whiteSpace=wrap;html=1;absoluteArcSize=1;arcSize=14;strokeWidth=2;" vertex="1" parent="1">
          <mxGeometry x="1050" y="540" width="100" height="50" as="geometry" />
        </mxCell>
        <mxCell id="5WmUJms9LSQHzPQv98dH-42" value="Ende" style="strokeWidth=2;html=1;shape=mxgraph.flowchart.terminator;whiteSpace=wrap;" vertex="1" parent="1">
          <mxGeometry x="1050" y="630" width="100" height="60" as="geometry" />
        </mxCell>
      </root>
    </mxGraphModel>
  </diagram>
</mxfile>
